<svg id="_Шар_1" data-name="Шар 1" xmlns="http://www.w3.org/2000/svg" viewBox="0 0 751.6 127.2" class="w-[160px] text-white opacity-80 invert"><path fill="#FFFFFF" d="m176.8,101.9c-4.3,0-6.4-1.1-6.4-3.4V31.5c0-1.5.3-2.6,1-3.2.7-.7,1.8-1.1,3.3-1.1h18.4c5.6,0,10.5,1.6,14.8,4.9,4.3,3.2,6.5,9.3,6.5,18.4,0,6.2-1.2,11.1-3.7,14.6-2.5,3.4-5.3,5.7-8.3,6.9-3.1,1.2-5.8,1.8-8.2,1.8h-7.3v24.7c0,2.3-2.1,3.4-6.4,3.4h-3.7Zm15.5-41.8c1.6,0,3.1-.7,4.3-2.1,1.2-1.4,1.8-3.9,1.8-7.5s-.6-5.9-1.8-7.2c-1.2-1.4-2.6-2.1-4.3-2.1h-5.6v18.9h5.6Zm40.8,42.5c-3.7,0-7.1-.6-10.3-1.9-3.1-1.3-4.7-2.9-4.7-5,0-1.5.7-3.3,2-5.5,1.4-2.2,2.7-3.3,3.7-3.3.3,0,.9.3,1.8.9,1,.6,1.9,1.1,2.8,1.5.9.4,1.8.5,3,.5,1.7,0,3-.4,3.9-1.1s1.4-1.7,1.4-2.9c0-1.4-.5-2.6-1.4-3.4-.9-.9-2.4-1.8-4.4-2.9l-2.1-1.3c-3.1-1.8-5.5-3.9-7.3-6.1-1.8-2.3-2.7-5.5-2.7-9.8,0-5.3,1.6-9.5,4.8-12.6,3.3-3.1,7.5-4.6,12.8-4.6,3.3,0,6.4.5,9.4,1.6,3,1,4.5,2.5,4.5,4.6,0,1.4-.5,3.2-1.6,5.4-1,2.1-1.9,3.2-2.8,3.2-.2,0-1-.3-2.4-1-1.4-.6-2.9-1-4.4-1-3.5,0-5.3,1.2-5.3,3.6,0,1.2.4,2.2,1.3,3,.9.7,2.3,1.6,4.3,2.8.9.4,2.1,1.1,3.4,1.9,2.8,1.8,4.9,3.8,6.5,6.1,1.6,2.3,2.4,5.3,2.4,9.2,0,5.3-1.7,9.7-5,13-3.3,3.4-7.8,5.1-13.6,5.1Zm57.1-56.8c4.1,0,6.2.8,6.2,2.3,0,.3-.1.9-.2,1.9l-18.1,71.3c-.4,1.5-2.3,2.2-5.9,2.2h-2.1c-4,0-6-.7-6-2.2,0-.5.1-1.1.3-1.9l4.6-16.6-14.6-52.3c-.3-.9-.4-1.6-.4-2.3,0-1.6,1.8-2.4,5.3-2.4h4.6c1.6,0,2.9.2,3.7.5.9.3,1.5.9,1.7,1.9l3.9,21.6c.4,2.6,1,6.5,1.7,11.9h.4c.4-2.5.6-4.1.7-4.8.4-3.4.8-5.8,1.1-7.1l4.3-21.8c.3-1.5,2.2-2.2,5.6-2.2,0,0,3.2,0,3.2,0Zm31.8,56.8c-15,0-22.6-9.5-22.6-28.5s7.7-28.8,23-28.8c2.6,0,5,.4,7.3,1.1,2.4.6,4.4,1.5,5.9,2.7,1.5,1.1,2.2,2.3,2.2,3.6s-.6,2.9-1.7,5-2.1,3.1-3.1,3.1c-.4,0-1.1-.3-2-.9-1.3-.6-2.4-1.1-3.4-1.5s-2.2-.6-3.5-.6c-2.9,0-5.1,1.2-6.5,3.7s-2.1,6.6-2.1,12.5.7,10,2,12.6c1.3,2.5,3.4,3.7,6.3,3.7,1.3,0,2.4-.2,3.5-.5,1.1-.4,2-.7,2.7-1.1s1.2-.6,1.4-.6c1-.5,1.6-.7,1.9-.7,1.1,0,2.1,1,3.1,3.1,1.1,2,1.6,3.7,1.6,5s-.9,2.6-2.7,3.7-3.9,2-6.5,2.7c-2.5.3-4.7.7-6.8.7Zm28.9-.7c-4.1,0-6.2-1.1-6.2-3.4V24.9c0-2.3,2.1-3.4,6.2-3.4h3.6c4.1,0,6.2,1.1,6.2,3.4v27.6c1.6-2.1,3.4-3.9,5.6-5.2,2.3-1.3,4.8-2,7.7-2,3.9,0,6.9,1.3,8.9,3.8,2.1,2.5,3.1,6.1,3.1,11v38.5c0,2.3-2.1,3.4-6.2,3.4h-3.6c-4.1,0-6.2-1.1-6.2-3.4v-35c0-1.8-.3-3.2-1-4-.6-.9-1.7-1.4-3.2-1.4-2,0-3.7,1.1-5.2,3.4v36.9c0,2.3-2.1,3.4-6.2,3.4h-3.5Zm65.4.7c-7.1,0-12.5-2.4-16.2-7.3-3.7-5-5.5-12.1-5.5-21.4s1.8-16.4,5.4-21.3c3.7-4.9,9.1-7.3,16.3-7.3s12.6,2.4,16.3,7.3,5.5,12,5.5,21.3-1.8,16.4-5.5,21.4c-3.7,4.8-9.2,7.3-16.3,7.3Zm.1-12.5c2.1,0,3.5-1.2,4.4-3.6.9-2.5,1.4-6.7,1.4-12.7s-.5-10.1-1.4-12.6c-.9-2.4-2.3-3.6-4.4-3.6s-3.7,1.2-4.6,3.6c-.9,2.4-1.3,6.6-1.3,12.6s.4,10.2,1.3,12.7c.9,2.4,2.4,3.6,4.6,3.6Zm84.9-44.9c3.9,0,6.8,1.3,8.8,3.8s3,6.1,3,11v38.5c0,2.3-2.1,3.4-6.2,3.4h-3.6c-4.1,0-6.2-1.1-6.2-3.4v-34.9c0-1.8-.3-3.2-.9-4-.6-.9-1.6-1.4-3.1-1.4-1.8,0-3.6,1-5.2,2.9v37.5c0,2.3-2.1,3.4-6.2,3.4h-3.6c-4.1,0-6.2-1.1-6.2-3.4v-35c0-1.8-.3-3.2-.9-4-.6-.9-1.6-1.4-3.1-1.4-1.8,0-3.6,1.1-5.2,3.4v36.9c0,1.1-.5,2-1.5,2.6s-2.5.9-4.6.9h-3.6c-4,0-6.1-1.1-6.1-3.4v-34c0-5-.2-8.6-.5-10.8-.4-2.1-.5-3.4-.5-3.9,0-1.3,1.5-2.2,4.5-2.8s5.6-1,7.8-1c1.3,0,2.2.4,2.7,1.2.4.8.7,1.8.9,3.1.2,1.2.4,2.2.5,2.9,1.6-2.3,3.6-4.3,5.9-5.7,2.3-1.6,5-2.3,8.1-2.3,5.6,0,9.2,2.5,10.7,7.5,1.6-2.1,3.5-3.9,6-5.3,2.3-1.6,5.1-2.3,8.3-2.3Zm44.6,57.4c-8.2,0-14.3-2.4-18.2-7.1-3.9-4.8-5.9-11.9-5.9-21.2,0-10.5,1.9-18,5.7-22.4,3.9-4.5,9.4-6.7,16.4-6.7s12,2.4,15.1,7.3,4.7,12,4.7,21.3c0,.9-.7,2.1-2.2,3.8-1.4,1.6-2.5,2.4-3.2,2.4h-20.2c.1,3.6,1,6.2,2.4,7.8,1.5,1.5,3.5,2.2,6.1,2.2,1.6,0,3-.2,4.3-.6s2.5-.9,3.7-1.5,2-1,2.2-1c.7,0,1.5.5,2.3,1.6.9,1,1.7,2.2,2.2,3.5.6,1.3,1,2.3,1,3,0,1.6-1,3-2.9,4.2-1.9,1.1-4.2,1.9-6.8,2.4-2.4.7-4.7,1-6.7,1Zm3.5-32c0-5-.4-8.6-1.3-10.7-.9-2.2-2.3-3.3-4.3-3.3s-3.4,1-4.5,3.1c-1,2.1-1.6,5.7-1.9,11h12v-.1Zm36.7,32c-4.3,0-7.6-1.3-9.9-4-2.3-2.8-3.4-7-3.4-12.6v-27.5h-1.2c-1.1,0-2-.4-2.4-1.3-.5-.9-.7-2.2-.7-4v-1.8c0-1.8.2-3.2.7-4,.5-.9,1.3-1.3,2.4-1.3h1.2l1.4-10.1c.4-2.3,2.3-3.4,5.7-3.4h3.3c3.5,0,5.3,1.1,5.3,3.4v10h3.9c1.1,0,2,.4,2.4,1.3.5.9.7,2.2.7,4v1.8c0,1.8-.2,3.2-.7,4-.5.9-1.3,1.3-2.4,1.3h-3.9v27.9c0,1.3.2,2.2.5,2.9.4.6,1.1.9,2,.9.4,0,.8-.1,1.4-.2.6-.1,1.1-.2,1.5-.2.9,0,1.6,1,2.2,3.1.6,2,1,3.5,1,4.5,0,1.8-1.2,3.1-3.6,4-2.4.8-4.9,1.3-7.4,1.3Zm24.4-.7c-4.3,0-6.4-1.1-6.4-3.4v-34c0-3.1-.1-5.5-.3-7.1-.1-1.7-.4-3.6-.6-5.6-.2-1-.3-1.7-.3-2.2,0-1.1,1.4-2,4.3-2.6,2.9-.6,5.5-.9,7.7-.9,1.3,0,2.2.5,2.7,1.5s.9,2.1,1.1,3.3c.3,1.1.5,1.9.5,2.3,1-2.5,2.2-4.4,3.5-5.9s3.2-2.2,5.5-2.2c2,0,3.3.5,3.9,1.4.7.9,1.1,2.3,1.1,4.4,0,1.6-.3,3.5-.9,6-.5,2.4-1.1,3.6-1.9,3.6-.4,0-1.2-.1-2.2-.4-1.1-.3-2-.4-2.8-.4-1.3,0-2.5.5-3.4,1.5s-1.6,2.3-2,3.8v33.5c0,2.3-2.1,3.4-6.4,3.4h-3.1Zm35.7,0c-4.3,0-6.4-1.1-6.4-3.4v-49.3c0-2.3,2.1-3.4,6.4-3.4h3c4.3,0,6.4,1.1,6.4,3.4v49.3c0,2.3-2.1,3.4-6.4,3.4h-3Zm1.6-61.3c-5.3,0-7.9-1.1-7.9-3.4v-8.3c0-2.3,2.6-3.4,7.9-3.4s7.9,1.1,7.9,3.4v8.3c0,2.3-2.7,3.4-7.9,3.4Zm39.6,62c-15,0-22.6-9.5-22.6-28.5s7.7-28.8,23-28.8c2.6,0,5,.4,7.3,1.1,2.4.6,4.4,1.5,5.9,2.7,1.5,1.1,2.2,2.3,2.2,3.6s-.6,2.9-1.7,5c-1.1,2.1-2.1,3.1-3.1,3.1-.4,0-1.1-.3-2-.9-1.3-.6-2.4-1.1-3.4-1.5s-2.2-.6-3.5-.6c-2.9,0-5.1,1.2-6.5,3.7s-2.1,6.6-2.1,12.5.7,10,2,12.6c1.3,2.5,3.4,3.7,6.3,3.7,1.3,0,2.4-.2,3.5-.5,1.1-.4,2-.7,2.7-1.1s1.2-.6,1.4-.6c1-.5,1.6-.7,1.9-.7,1.1,0,2.1,1,3.1,3.1,1.1,2,1.6,3.7,1.6,5s-.9,2.6-2.7,3.7-3.9,2-6.5,2.7c-2.5.3-4.8.7-6.8.7Zm35.9,0c-4.7,0-8.3-1.5-10.9-4.5-2.5-3-3.7-7.1-3.7-12.2,0-13.3,8.3-19.9,24.8-19.8v-1.7c0-2.3-.5-3.9-1.6-5-1-1.1-2.6-1.7-4.9-1.7-1.6,0-2.9.2-4.2.6-1.2.4-2.6.9-4,1.6-1,.6-1.7.9-2.2.9-.7,0-1.5-.5-2.3-1.6-.9-1.1-1.6-2.3-2.2-3.6-.6-1.4-1-2.5-1-3.3,0-1.2.8-2.3,2.4-3.4,1.7-1.1,3.9-2,6.5-2.7,2.7-.6,5.4-1,8.2-1,7.4,0,12.7,1.6,16.1,4.9,3.3,3.3,5,7.8,5,13.5v19.4c0,3.3.1,5.7.2,7.5.2,1.7.5,3.6.7,5.6.2.9.3,1.7.3,2.3,0,1.1-1.5,2-4.4,2.6-2.8.6-5.4.9-7.6.9-1.1,0-2-.4-2.4-1.3s-.9-2.2-1.4-4.2c-.9,1.6-2.4,3-4.4,4.3-1.9,1.2-4.3,1.9-7,1.9Zm4.7-11.4c1.1,0,2.2-.3,3.1-1,1-.6,1.8-1.5,2.3-2.6v-12.4c-7.1,0-10.6,3.2-10.6,9.5,0,2,.5,3.6,1.4,4.8.9,1.1,2.2,1.7,3.8,1.7Z"></path><g><path fill="#FFFFFF" d="m112.1,64.1c13.4-22.4,16.5-44,5.8-54.7-10.7-10.7-32.3-7.6-54.7,5.8C40.9,1.8,19.3-1.3,8.6,9.4-2.1,20.1,1,41.7,14.5,64.1,1,86.5-2.1,108,8.6,118.7c10.7,10.7,32.3,7.6,54.7-5.8,22.4,13.4,44,16.5,54.7,5.8,10.6-10.7,7.6-32.2-5.9-54.6Zm-12.1-50.9c4.8,0,8.4,1.2,10.7,3.5,6.1,6.1,4.3,20.9-4.9,37.9-4.4-6-9.5-12-15.2-17.8-5.8-5.8-11.8-10.9-17.8-15.3,9.8-5.3,19.3-8.3,27.2-8.3Zm.1,50.9c-4.5,6.7-10.1,13.5-16.7,20.1s-13.3,12-20.1,16.6c-6.9-4.6-13.7-10.2-20.1-16.6-6.6-6.6-12.2-13.4-16.7-20.1,4.7-6.9,10.3-13.8,16.6-20.1s13.3-12,20.1-16.6c6.9,4.6,13.8,10.1,20.2,16.6,6.6,6.6,12.2,13.4,16.7,20.1ZM15.9,16.6c2.3-2.3,5.9-3.5,10.7-3.5,7.9,0,17.4,3,27.2,8.3-6,4.5-12.1,9.6-17.8,15.4-5.8,5.8-10.8,11.8-15.2,17.8-9.2-17-11-31.9-4.9-38Zm10.7,98.4c-4.8,0-8.4-1.2-10.7-3.5-4.3-4.3-4.6-13.6-.9-24.9,1.4-4.2,3.4-8.6,5.8-13,4.4,6,9.5,12,15.2,17.8,5.8,5.8,11.8,10.9,17.8,15.3-9.8,5.3-19.3,8.3-27.2,8.3Zm84.1-3.5c-2.3,2.3-5.9,3.5-10.7,3.5-7.9,0-17.4-3-27.2-8.3,6-4.4,12.1-9.5,17.8-15.3,5.8-5.8,10.9-11.8,15.2-17.8,9.2,17,11,31.9,4.9,37.9Z"></path><path fill="#FFFFFF" d="m82.8,50.4c-5.2-4.4-12.9-3.6-17.6,1.3l-1.9,1.9-1.9-1.9c-4.7-4.9-12.4-5.7-17.6-1.3-5.9,5.1-6.2,14.2-.9,19.6l18.3,18.9c1.2,1.2,3.1,1.2,4.3,0l18.2-18.9c5.3-5.4,5-14.5-.9-19.6h0Z"></path></g></svg>